<svg width="42" height="39" viewBox="0 0 42 39" fill="none" xmlns="http://www.w3.org/2000/svg">
<path d="M11.3933 8.26833L8.09333 5.21041L5.50833 7.61916L8.78999 10.6771L11.3933 8.26833ZM6.33333 17.9375H0.833328V21.3542H6.33333V17.9375ZM22.8333 0.939575H19.1667V5.97916H22.8333V0.939575ZM36.4917 7.61916L33.9067 5.21041L30.625 8.26833L33.21 10.6771L36.4917 7.61916ZM30.6067 31.0233L33.8883 34.0983L36.4733 31.6896L33.1733 28.6317L30.6067 31.0233ZM35.6667 17.9375V21.3542H41.1667V17.9375H35.6667ZM21 9.39583C14.9317 9.39583 9.99999 13.9912 9.99999 19.6458C9.99999 25.3004 14.9317 29.8958 21 29.8958C27.0683 29.8958 32 25.3004 32 19.6458C32 13.9912 27.0683 9.39583 21 9.39583ZM19.1667 38.3521H22.8333V33.3125H19.1667V38.3521ZM5.50833 31.6725L8.09333 34.0812L11.375 31.0062L8.78999 28.5975L5.50833 31.6725Z" fill="#EEBD11"/>
</svg>
